<svg xmlns="http://www.w3.org/2000/svg" version="1.1" x="0" y="0" width="712.9" height="696.25" viewBox="0 0 712.9 696.25" xmlns:k="http://schemas.kapit.fr/svg/2007/" xmlns:xlink="http://www.w3.org/1999/xlink">
  <defs>
    <style type="text/css"><![CDATA[.background
{
fill-opacity:0;
fill:#008000
}

.annotation
{
lock:all;
font-family:Arial;
action-doubleclick:textedit;
text-anchor:middle;
wordwrap:true;
fill:#666666
}

.link-annotation
{
lock:all;
font-family:Arial;
action-doubleclick:textedit;
text-anchor:middle;
wordwrap:true;
fill:#0000ff
}

.select-ui-rect
{
stroke:#0000ff;
stroke-opacity:0.2;
stroke-width:2;
fill-opacity:0;
fill:#0000ff
}

.select-ui-knob
{
stroke:#ffffff;
stroke-opacity:1;
stroke-width:1;
fill-opacity:0.2;
fill:#0000ff
}

.lanescope-link
{
stroke:#aaaaaa;
stroke-opacity:1;
stroke-width:2;
fill:#aaaaaa
}

.feedback-link
{
stroke:#66ff00;
stroke-opacity:1;
stroke-width:2;
fill:#66ff00
}

.panelscope-link
{
stroke:#8787de;
stroke-opacity:1;
stroke-width:2;
fill:#8787de
}

.viewscope-link
{
stroke:#8787de;
stroke-opacity:1;
stroke-width:2;
stroke-dasharray:2,4,10,4;
fill:#8787de
}

.link-ui
{
stroke:#000000;
stroke-opacity:0.2;
stroke-width:2
}

.link-ui-knob
{
stroke:#666666;
stroke-opacity:1;
stroke-width:1;
fill-opacity:1;
fill:#ffffff
}

.link-ui-knob-selected
{
stroke:#666666;
stroke-opacity:1;
stroke-width:1;
fill-opacity:1;
fill:#ffa500
}

.feedback-sprite
{
stroke:#66ff00;
stroke-opacity:1;
stroke-width:2;
fill-opacity:0.7;
fill:#66ff00
}


.basic
{
action-accept:annotation
}

.outonly
{
action-click:link
}

.bg
{
action-click:link;
action-accept:link
}

.annotation
{
font-style:italic
}

.link-annotation
{
fill:#666666;
font-size:12px
}


]]></style>
  </defs>
  <svg x="0" y="0" width="650.9" height="696.25" viewBox="0 0 650.9 696.25">
    <g transform="matrix(1,0,0,1,469.9,47)">
      <path class="lanescope-link" style="fill:none" d="M-0.9 80.8 L-0.9 102.35"/>
      <path class="lanescope-link" style="stroke-width:0" d="M-0.9000000000000008 90.35 L2.099999999999999 90.35 -0.9 102.35 -3.900000000000001 90.35 z"/>
    </g>
    <g transform="matrix(1,0,0,1,469,125)">
      <path class="lanescope-link" style="fill:none" d="M1 91.35 L1 118.55"/>
      <path class="lanescope-link" style="stroke-width:0" d="M0.9999999999999992 106.55 L3.999999999999999 106.55 1 118.55 -2.000000000000001 106.55 z"/>
    </g>
    <g transform="matrix(1,0,0,1,470,241)">
      <path class="lanescope-link" style="fill:none" d="M1 69.7 L1 93.2"/>
      <path class="lanescope-link" style="stroke-width:0" d="M0.9999999999999992 81.2 L3.999999999999999 81.2 1 93.2 -2.000000000000001 81.2 z"/>
    </g>
    <g transform="matrix(1,0,0,1,470.95,314)">
      <path class="lanescope-link" style="fill:none" d="M-0.95 87.6 L-0.95 107.35"/>
      <path class="lanescope-link" style="stroke-width:0" d="M-0.9500000000000007 95.35 L2.049999999999999 95.35 -0.95 107.35 -3.950000000000001 95.35 z"/>
    </g>
    <g transform="matrix(1,0,0,1,470,410)">
      <path class="lanescope-link" style="fill:none" d="M0 78.6 L0 98.3"/>
      <path class="lanescope-link" style="stroke-width:0" d="M-7.347880794884119e-16 86.3 L2.999999999999999 86.3 0 98.3 -3.000000000000001 86.3 z"/>
    </g>
    <g transform="matrix(1,0,0,1,470,513.9)">
      <path class="lanescope-link" style="fill:none" d="M1.35 61.35 L1.35 130.35"/>
      <path class="lanescope-link" style="stroke-width:0" d="M1.3499999999999994 118.35 L4.35 118.35 1.35 130.35 -1.6500000000000008 118.35 z"/>
    </g>
    <g transform="matrix(1,0,0,1,339,178.3)">
      <path class="lanescope-link" style="fill:none" d="M0.8 0 L68.5 0"/>
      <path class="lanescope-link" style="stroke-width:0" d="M56.5 0 L56.5 -3 68.5 0 56.5 3 z"/>
    </g>
    <g transform="matrix(1,0,0,1,336.2,449.3)">
      <path class="lanescope-link" style="fill:none" d="M2.65 5.35 L72 5.35"/>
      <path class="lanescope-link" style="stroke-width:0" d="M60 5.35 L60 2.3499999999999996 72 5.35 60 8.35 z"/>
    </g>
    <g transform="matrix(1,0,0,1,336.55,546.05)">
      <path class="lanescope-link" style="fill:none" d="M2 0 L72 0"/>
      <path class="lanescope-link" style="stroke-width:0" d="M60 0 L60 -3 72 0 60 3 z"/>
    </g>
    <g transform="matrix(1,0,0,1,340.55,93.8)">
      <path class="lanescope-link" style="fill:none" d="M0.75 2.85 L67.55 2.85"/>
      <path class="lanescope-link" style="stroke-width:0" d="M55.55 2.85 L55.55 -0.1499999999999999 67.55 2.85 55.55 5.85 z"/>
    </g>
    <g transform="matrix(1,0,0,1,410,62.7)">
      <g id="kefed_expobject" class="basic" style="groupid:Basic;spriteid:Experimental Object">
        <path id="expobject_rect" style="stroke-width:3;stroke:#6996cf;fill:#ffffff;stroke-linecap:round" d="M3.950000000000003 3.8999999999999986 l112 0 l0 55 l-112 0 z"/>
        <polygon id="expobj_path" class="bg" style="stroke-width:5;stroke:#e6f2ff;fill:none" points="-0.018000000000000682,-0.017000000000003013 119.867,-0.017000000000003013 119.867,62.983 -0.018000000000000682,62.983"/>
      </g>
    </g>
    <g transform="matrix(1,0,0,1,409.25,151.6)">
      <g id="kefed_activity" class="basic" style="groupid:Basic;spriteid:Activity">
        <path id="activity_ellipse" style="stroke-width:3;stroke:#6996cf;fill:#ffffff" d="M60.06699999999999 3.718999999999994 c15.281 0 55.975 5.846 55.975 27.581 c0 18.437 -32.58 27.581 -55.975 27.581 c-49.842 0 -55.975 -23.397 -55.975 -27.581 C4.091999999999999 10.998999999999995 44.17400000000001 3.718999999999994 60.06699999999999 3.718999999999994 z"/>
        <path id="activity_path" class="bg" style="stroke-width:5;stroke:#e6f2ff;fill:none" d="M59.75 0.014000000000010004 c16.312 0 59.75 6.649 59.75 31.368 c0 20.969 -34.777 31.368 -59.75 31.368 C6.546999999999997 62.75 0 36.14099999999999 0 31.382000000000005 C0 8.293000000000006 42.785 0.014000000000010004 59.75 0.014000000000010004 z"/>
      </g>
    </g>
    <g transform="matrix(1,0,0,1,410.25,245.6)">
      <g id="kefed_activity" class="basic" style="groupid:Basic;spriteid:Activity">
        <path id="activity_ellipse" style="stroke-width:3;stroke:#6996cf;fill:#ffffff" d="M60.06699999999999 3.718999999999994 c15.281 0 55.975 5.846 55.975 27.581 c0 18.437 -32.58 27.581 -55.975 27.581 c-49.842 0 -55.975 -23.397 -55.975 -27.581 C4.091999999999999 10.998999999999995 44.17400000000001 3.718999999999994 60.06699999999999 3.718999999999994 z"/>
        <path id="activity_path" class="bg" style="stroke-width:5;stroke:#e6f2ff;fill:none" d="M59.75 0.014000000000010004 c16.312 0 59.75 6.649 59.75 31.368 c0 20.969 -34.777 31.368 -59.75 31.368 C6.546999999999997 62.75 0 36.14099999999999 0 31.382000000000005 C0 8.293000000000006 42.785 0.014000000000010004 59.75 0.014000000000010004 z"/>
      </g>
    </g>
    <g transform="matrix(1,0,0,1,411.05,336.5)">
      <g id="kefed_expobject" class="basic" style="groupid:Basic;spriteid:Experimental Object">
        <path id="expobject_rect" style="stroke-width:3;stroke:#6996cf;fill:#ffffff;stroke-linecap:round" d="M3.950000000000003 3.8999999999999986 l112 0 l0 55 l-112 0 z"/>
        <polygon id="expobj_path" class="bg" style="stroke-width:5;stroke:#e6f2ff;fill:none" points="-0.018000000000000682,-0.017000000000003013 119.867,-0.017000000000003013 119.867,62.983 -0.018000000000000682,62.983"/>
      </g>
    </g>
    <g transform="matrix(1,0,0,1,410.25,423.6)">
      <g id="kefed_activity" class="basic" style="groupid:Basic;spriteid:Activity">
        <path id="activity_ellipse" style="stroke-width:3;stroke:#6996cf;fill:#ffffff" d="M60.06699999999999 3.718999999999994 c15.281 0 55.975 5.846 55.975 27.581 c0 18.437 -32.58 27.581 -55.975 27.581 c-49.842 0 -55.975 -23.397 -55.975 -27.581 C4.091999999999999 10.998999999999995 44.17400000000001 3.718999999999994 60.06699999999999 3.718999999999994 z"/>
        <path id="activity_path" class="bg" style="stroke-width:5;stroke:#e6f2ff;fill:none" d="M59.75 0.014000000000010004 c16.312 0 59.75 6.649 59.75 31.368 c0 20.969 -34.777 31.368 -59.75 31.368 C6.546999999999997 62.75 0 36.14099999999999 0 31.382000000000005 C0 8.293000000000006 42.785 0.014000000000010004 59.75 0.014000000000010004 z"/>
      </g>
    </g>
    <g transform="matrix(1,0,0,1,410.25,510.6)">
      <g id="kefed_activity" class="basic" style="groupid:Basic;spriteid:Activity">
        <path id="activity_ellipse" style="stroke-width:3;stroke:#6996cf;fill:#ffffff" d="M60.06699999999999 3.718999999999994 c15.281 0 55.975 5.846 55.975 27.581 c0 18.437 -32.58 27.581 -55.975 27.581 c-49.842 0 -55.975 -23.397 -55.975 -27.581 C4.091999999999999 10.998999999999995 44.17400000000001 3.718999999999994 60.06699999999999 3.718999999999994 z"/>
        <path id="activity_path" class="bg" style="stroke-width:5;stroke:#e6f2ff;fill:none" d="M59.75 0.014000000000010004 c16.312 0 59.75 6.649 59.75 31.368 c0 20.969 -34.777 31.368 -59.75 31.368 C6.546999999999997 62.75 0 36.14099999999999 0 31.382000000000005 C0 8.293000000000006 42.785 0.014000000000010004 59.75 0.014000000000010004 z"/>
      </g>
    </g>
    <g transform="matrix(1,0,0,1,439.3,613.15)">
      <g id="kefed_measurementspec" class="basic" style="groupid:Basic;spriteid:Measurement Specification">
        <path style="stroke-width:3;stroke:#6996cf;fill:#ffffff;stroke-linecap:round" d="M4.063000000000002 4.24199999999999 l55.866 0 l0 55 l-55.866 0 z"/>
        <path style="stroke:#6996cf;fill:#6a99ce;stroke-linecap:round" d="M4.0319999999999965 4.332999999999998 l55.897 0 l0 18.333 l-55.897 0 z"/>
        <line style="stroke:#6996cf;fill:none;stroke-linecap:round" x1="41.263000000000005" y1="4.24199999999999" x2="41.263000000000005" y2="59.24199999999999"/>
        <line style="stroke:#6996cf;fill:none;stroke-linecap:round" x1="22.596000000000004" y1="4.24199999999999" x2="22.596000000000004" y2="59.24199999999999"/>
        <line style="stroke:#6996cf;fill:none;stroke-linecap:round" x1="4.063000000000002" y1="22.57499999999999" x2="59.929" y2="22.57499999999999"/>
        <line style="stroke:#6996cf;fill:none;stroke-linecap:round" x1="4.063000000000002" y1="40.90899999999999" x2="59.929" y2="40.90899999999999"/>
        <path style="stroke:#6996cf;fill:#6a99ce;stroke-linecap:round" d="M4.049000000000007 22.57499999999999 l18.547 0 l0 36.667 l-18.547 0 z"/>
        <line style="stroke:#ffffff;fill:none;stroke-linecap:round" x1="4.049000000000007" y1="40.90899999999999" x2="22.596000000000004" y2="40.90899999999999"/>
        <line style="stroke:#ffffff;fill:none;stroke-linecap:round" x1="4.0319999999999965" y1="22.57499999999999" x2="22.596000000000004" y2="22.57499999999999"/>
        <line style="stroke:#ffffff;fill:none;stroke-linecap:round" x1="22.596000000000004" y1="22.575999999999993" x2="22.596000000000004" y2="4.302999999999997"/>
        <line style="stroke:#ffffff;fill:none;stroke-linecap:round" x1="41.263000000000005" y1="22.57499999999999" x2="41.263000000000005" y2="4.271999999999991"/>
        <polygon id="depv_path" class="bg" style="stroke-width:5;stroke:#e6f2ff;fill:none" points="0,0.09899999999998954 64,-0.0040000000000048885 64,63.099999999999994 0.019000000000005457,63.099999999999994"/>
      </g>
    </g>
    <g transform="matrix(1,0,0,1,314.1,51.4)">
      <g id="kefed_parameterspec" class="basic" style="groupid:Basic;spriteid:Parameter Specification">
        <path id="indepdrect1" style="stroke-width:3;stroke:#6996cf;fill:#6a99ce;stroke-linecap:round" d="M0.35200000000000387 0.020999999999958163 l25.024 0 l0 76.299 l-25.024 0 z"/>
        <line id="indepdline1" style="stroke:#ffffff;fill:none;stroke-linecap:round" x1="25.252999999999986" y1="50.978999999999985" x2="0.31100000000000705" y2="50.978999999999985"/>
        <line id="indepdline2" style="stroke:#ffffff;fill:none;stroke-linecap:round" x1="25.25200000000001" y1="25.498999999999967" x2="0.2680000000000007" y2="25.498999999999967"/>
        <path id="indepd_path" class="bg" style="stroke-width:5;stroke:#e6f2ff;fill:none;stroke-linecap:round" d="M0.35200000000000387 0.020999999999958163 l25.024 0 l0 76.299 l-25.024 0 z"/>
      </g>
    </g>
    <g transform="matrix(1,0,0,1,312.5,142.95)">
      <g id="kefed_parameterspec" class="basic" style="groupid:Basic;spriteid:Parameter Specification">
        <path id="indepdrect1" style="stroke-width:3;stroke:#6996cf;fill:#6a99ce;stroke-linecap:round" d="M0.35200000000000387 0.020999999999958163 l25.024 0 l0 76.299 l-25.024 0 z"/>
        <line id="indepdline1" style="stroke:#ffffff;fill:none;stroke-linecap:round" x1="25.252999999999986" y1="50.978999999999985" x2="0.31100000000000705" y2="50.978999999999985"/>
        <line id="indepdline2" style="stroke:#ffffff;fill:none;stroke-linecap:round" x1="25.25200000000001" y1="25.498999999999967" x2="0.2680000000000007" y2="25.498999999999967"/>
        <path id="indepd_path" class="bg" style="stroke-width:5;stroke:#e6f2ff;fill:none;stroke-linecap:round" d="M0.35200000000000387 0.020999999999958163 l25.024 0 l0 76.299 l-25.024 0 z"/>
      </g>
    </g>
    <g transform="matrix(1,0,0,1,311.7,404.6)">
      <g id="kefed_parameterspec" class="basic" style="groupid:Basic;spriteid:Parameter Specification">
        <path id="indepdrect1" style="stroke-width:3;stroke:#6996cf;fill:#6a99ce;stroke-linecap:round" d="M0.35200000000000387 0.020999999999958163 l25.024 0 l0 76.299 l-25.024 0 z"/>
        <line id="indepdline1" style="stroke:#ffffff;fill:none;stroke-linecap:round" x1="25.252999999999986" y1="50.978999999999985" x2="0.31100000000000705" y2="50.978999999999985"/>
        <line id="indepdline2" style="stroke:#ffffff;fill:none;stroke-linecap:round" x1="25.25200000000001" y1="25.498999999999967" x2="0.2680000000000007" y2="25.498999999999967"/>
        <path id="indepd_path" class="bg" style="stroke-width:5;stroke:#e6f2ff;fill:none;stroke-linecap:round" d="M0.35200000000000387 0.020999999999958163 l25.024 0 l0 76.299 l-25.024 0 z"/>
      </g>
    </g>
    <g transform="matrix(1,0,0,1,310.9,513.85)">
      <g id="kefed_parameterspec" class="basic" style="groupid:Basic;spriteid:Parameter Specification">
        <path id="indepdrect1" style="stroke-width:3;stroke:#6996cf;fill:#6a99ce;stroke-linecap:round" d="M0.35200000000000387 0.020999999999958163 l25.024 0 l0 76.299 l-25.024 0 z"/>
        <line id="indepdline1" style="stroke:#ffffff;fill:none;stroke-linecap:round" x1="25.252999999999986" y1="50.978999999999985" x2="0.31100000000000705" y2="50.978999999999985"/>
        <line id="indepdline2" style="stroke:#ffffff;fill:none;stroke-linecap:round" x1="25.25200000000001" y1="25.498999999999967" x2="0.2680000000000007" y2="25.498999999999967"/>
        <path id="indepd_path" class="bg" style="stroke-width:5;stroke:#e6f2ff;fill:none;stroke-linecap:round" d="M0.35200000000000387 0.020999999999958163 l25.024 0 l0 76.299 l-25.024 0 z"/>
      </g>
    </g>
    <g transform="matrix(1,0,0,1,416.9,79.7)">
      <g style="groupid:__sys__;spriteid:annotation">
        <svg class="annotation" x="2" y="2" width="100" height="29.299999999999997" viewBox="0 0 100 29.299999999999997">
          <text style="shapeid:annotation" x="0" y="0">
            <tspan x="50" dx="2" dy="16"><![CDATA[Cell Type
]]></tspan>
            <k:textfield><![CDATA[Cell Type]]></k:textfield>
          </text>
        </svg>
      </g>
    </g>
    <g transform="matrix(1,0,0,1,418,265.35)">
      <g style="groupid:__sys__;spriteid:annotation">
        <svg class="annotation" x="2" y="2" width="100" height="23.65" viewBox="0 0 100 23.65">
          <text style="shapeid:annotation" x="0" y="0">
            <tspan x="50" dx="2" dy="16"><![CDATA[Cell Lysing
]]></tspan>
            <k:textfield><![CDATA[Cell Lysing]]></k:textfield>
          </text>
        </svg>
      </g>
    </g>
    <g transform="matrix(1,0,0,1,418.95,356.5)">
      <g style="groupid:__sys__;spriteid:annotation">
        <svg class="annotation" x="2" y="2" width="100" height="25" viewBox="0 0 100 25">
          <text style="shapeid:annotation" x="0" y="0">
            <tspan x="50" dx="2" dy="16"><![CDATA[Lysate
]]></tspan>
            <k:textfield><![CDATA[Lysate]]></k:textfield>
          </text>
        </svg>
      </g>
    </g>
    <g transform="matrix(1,0,0,1,407,442.35)">
      <g style="groupid:__sys__;spriteid:annotation">
        <svg class="annotation" x="2" y="2" width="119" height="30" viewBox="0 0 119 30">
          <text style="shapeid:annotation" x="0" y="0">
            <tspan x="59.5" dx="2" dy="16"><![CDATA[Coprecipitation
]]></tspan>
            <k:textfield><![CDATA[Coprecipitation]]></k:textfield>
          </text>
        </svg>
      </g>
    </g>
    <g transform="matrix(1,0,0,1,413,527.5)">
      <g style="groupid:__sys__;spriteid:annotation">
        <svg class="annotation" x="2" y="2" width="100.25" height="26" viewBox="0 0 100.25 26">
          <text style="shapeid:annotation" x="0" y="0">
            <tspan x="50.125" dx="2" dy="16"><![CDATA[Western Blot
]]></tspan>
            <k:textfield><![CDATA[Western Blot]]></k:textfield>
          </text>
        </svg>
      </g>
    </g>
    <g transform="matrix(1,0,0,1,500.9,637.45)">
      <g style="groupid:__sys__;spriteid:annotation">
        <svg class="annotation" x="2" y="2" width="100" height="16" viewBox="0 0 100 16">
          <text style="shapeid:annotation" x="0" y="0">
            <tspan x="50" dx="2" dy="16"><![CDATA[band-density
]]></tspan>
            <k:textfield><![CDATA[band-density]]></k:textfield>
          </text>
        </svg>
      </g>
    </g>
    <g transform="matrix(1,0,0,1,222.8,531.2)">
      <g style="groupid:__sys__;spriteid:annotation">
        <svg class="annotation" x="2" y="2" width="100" height="42" viewBox="0 0 100 42">
          <text style="shapeid:annotation" x="0" y="0">
            <tspan x="50" dx="2" dy="16"><![CDATA[primary-]]></tspan>
            <tspan x="50" dx="2" dy="17"><![CDATA[antibody
]]></tspan>
            <k:textfield><![CDATA[primary-antibody]]></k:textfield>
          </text>
        </svg>
      </g>
    </g>
    <g transform="matrix(1,0,0,1,167.8,431.7)">
      <g style="groupid:__sys__;spriteid:annotation">
        <svg class="annotation" x="2" y="2" width="146.54999999999978" height="24.75" viewBox="0 0 146.54999999999978 24.75">
          <text style="shapeid:annotation" x="0" y="0">
            <tspan x="73.25" dx="2" dy="16"><![CDATA[immunoprecipitate
]]></tspan>
            <k:textfield><![CDATA[immunoprecipitate]]></k:textfield>
          </text>
        </svg>
      </g>
    </g>
    <g transform="matrix(1,0,0,1,220.35,167.75)">
      <g style="groupid:__sys__;spriteid:annotation">
        <svg class="annotation" x="2" y="2" width="100" height="26.049999999999997" viewBox="0 0 100 26.049999999999997">
          <text style="shapeid:annotation" x="0" y="0">
            <tspan x="50" dx="2" dy="16"><![CDATA[reagent
]]></tspan>
            <k:textfield><![CDATA[reagent]]></k:textfield>
          </text>
        </svg>
      </g>
    </g>
    <g transform="matrix(1,0,0,1,411.95,172.3)">
      <g style="groupid:__sys__;spriteid:annotation">
        <svg class="annotation" x="2" y="2" width="100" height="27.200000000000003" viewBox="0 0 100 27.200000000000003">
          <text style="shapeid:annotation" x="0" y="0">
            <tspan x="50" dx="2" dy="16"><![CDATA[Incubation
]]></tspan>
            <k:textfield><![CDATA[Incubation]]></k:textfield>
          </text>
        </svg>
      </g>
    </g>
    <g transform="matrix(1,0,0,1,175.9,74.6)">
      <g style="groupid:__sys__;spriteid:annotation">
        <svg class="annotation" x="2" y="2" width="153.15000000000003" height="25" viewBox="0 0 153.15000000000003 25">
          <text style="shapeid:annotation" x="0" y="0">
            <tspan x="76.575" dx="2" dy="16"><![CDATA[cell-type-name
]]></tspan>
            <k:textfield><![CDATA[cell-type-name]]></k:textfield>
          </text>
        </svg>
      </g>
    </g>
    <rect style="fill-opacity:1;stroke-width:1;stroke:#838ea8;stroke-opacity:1;fill:#eeeeee" x="0" y="0" rx="0" ry="0" width="31" height="696.25"/>
    <text style="font-family:arial;fill:#4f5e66;font-size:10px" transform="matrix(6.123233995736766e-17,-1,1,6.123233995736766e-17,0,76.65)" x="0" y="0">
      <tspan x="0" dx="2" dy="11"><![CDATA[copptby[WB]
]]></tspan>
      <k:textfield><![CDATA[copptby[WB]]]></k:textfield>
    </text>
    <rect style="fill-opacity:0;stroke-width:1;stroke:#838ea8;stroke-opacity:1;fill:#000000" x="0" y="0" rx="0" ry="0" width="650.9" height="696.25"/>
  </svg>
  <rect style="fill-opacity:1;stroke-width:1;stroke:#838ea8;stroke-opacity:1;fill:#cccccc" x="-31" y="-54" rx="0" ry="0" width="31" height="696.25"/>
  <text style="font-family:arial;fill:#4f5e66;font-size:10px" transform="matrix(6.123233995736766e-17,-1,1,6.123233995736766e-17,-31,21.049999999999997)" x="0" y="0">
    <tspan x="0" dx="2" dy="11"><![CDATA[Kefed Model
]]></tspan>
    <k:textfield><![CDATA[Kefed Model]]></k:textfield>
  </text>
</svg>