<svg xmlns="http://www.w3.org/2000/svg" version="1.1" x="0" y="0" width="572.75" height="518.3" viewBox="0 0 572.75 518.3" xmlns:k="http://schemas.kapit.fr/svg/2007/" xmlns:xlink="http://www.w3.org/1999/xlink">
  <defs>
    <style type="text/css"><![CDATA[.background
{
fill-opacity:0;
fill:#008000
}

.annotation
{
lock:all;
font-family:Arial;
action-doubleclick:textedit;
text-anchor:middle;
wordwrap:true;
fill:#666666
}

.link-annotation
{
lock:all;
font-family:Arial;
action-doubleclick:textedit;
text-anchor:middle;
wordwrap:true;
fill:#0000ff
}

.select-ui-rect
{
stroke:#0000ff;
stroke-opacity:0.2;
stroke-width:2;
fill-opacity:0;
fill:#0000ff
}

.select-ui-knob
{
stroke:#ffffff;
stroke-opacity:1;
stroke-width:1;
fill-opacity:0.2;
fill:#0000ff
}

.lanescope-link
{
stroke:#aaaaaa;
stroke-opacity:1;
stroke-width:2;
fill:#aaaaaa
}

.feedback-link
{
stroke:#66ff00;
stroke-opacity:1;
stroke-width:2;
fill:#66ff00
}

.panelscope-link
{
stroke:#8787de;
stroke-opacity:1;
stroke-width:2;
fill:#8787de
}

.viewscope-link
{
stroke:#8787de;
stroke-opacity:1;
stroke-width:2;
stroke-dasharray:2,4,10,4;
fill:#8787de
}

.link-ui
{
stroke:#000000;
stroke-opacity:0.2;
stroke-width:2
}

.link-ui-knob
{
stroke:#666666;
stroke-opacity:1;
stroke-width:1;
fill-opacity:1;
fill:#ffffff
}

.link-ui-knob-selected
{
stroke:#666666;
stroke-opacity:1;
stroke-width:1;
fill-opacity:1;
fill:#ffa500
}

.feedback-sprite
{
stroke:#66ff00;
stroke-opacity:1;
stroke-width:2;
fill-opacity:0.7;
fill:#66ff00
}


.basic
{
action-accept:annotation
}

.outonly
{
action-click:link
}

.bg
{
action-click:link;
action-accept:link
}

.annotation
{
font-style:italic
}

.link-annotation
{
fill:#666666;
font-size:12px
}


]]></style>
  </defs>
  <svg x="0" y="0" width="510.75" height="518.3" viewBox="0 0 510.75 518.3">
    <g transform="matrix(1,0,0,1,397.9,18)">
      <path class="lanescope-link" style="fill:none" d="M3.1 80.3 L3.1 106.35"/>
      <path class="lanescope-link" style="stroke-width:0" d="M3.099999999999999 94.35 L6.1 94.35 3.1 106.35 0.0999999999999992 94.35 z"/>
    </g>
    <g transform="matrix(1,0,0,1,241,59)">
      <path class="lanescope-link" style="fill:none" d="M2.6 0 L95.6 0"/>
      <path class="lanescope-link" style="stroke-width:0" d="M83.6 0 L83.6 -3 95.6 0 83.6 3 z"/>
    </g>
    <g transform="matrix(1,0,0,1,241,157)">
      <path class="lanescope-link" style="fill:none" d="M1.15 0 L98.85 0"/>
      <path class="lanescope-link" style="stroke-width:0" d="M86.85 0 L86.85 -3 98.85 0 86.85 3 z"/>
    </g>
    <g transform="matrix(1,0,0,1,401,117)">
      <path class="lanescope-link" style="fill:none" d="M0 74.6 L0 106.35"/>
      <path class="lanescope-link" style="stroke-width:0" d="M-7.347880794884119e-16 94.35 L2.999999999999999 94.35 0 106.35 -3.000000000000001 94.35 z"/>
    </g>
    <g transform="matrix(1,0,0,1,240,255)">
      <path class="lanescope-link" style="fill:none" d="M3.6 0 L99.6 0"/>
      <path class="lanescope-link" style="stroke-width:0" d="M87.6 0 L87.6 -3 99.6 0 87.6 3 z"/>
    </g>
    <g transform="matrix(1,0,0,1,401,218)">
      <path class="lanescope-link" style="fill:none" d="M0 72.6 L0 104.3"/>
      <path class="lanescope-link" style="stroke-width:0" d="M-7.347880794884119e-16 92.3 L2.999999999999999 92.3 0 104.3 -3.000000000000001 92.3 z"/>
    </g>
    <g transform="matrix(1,0,0,1,240,350)">
      <path class="lanescope-link" style="fill:none" d="M2.7 8 L99.85 8"/>
      <path class="lanescope-link" style="stroke-width:0" d="M87.85 8 L87.85 5 99.85 8 87.85 11 z"/>
    </g>
    <g transform="matrix(1,0,0,1,397.25,385.6)">
      <path class="lanescope-link" style="fill:none" d="M0 4.15 L0 31.95"/>
      <path class="lanescope-link" style="stroke-width:0" d="M-7.347880794884119e-16 19.95 L2.999999999999999 19.95 0 31.95 -3.000000000000001 19.95 z"/>
    </g>
    <g transform="matrix(1,0,0,1,338,33.9)">
      <g id="kefed_expobject" class="basic" style="groupid:Basic;spriteid:Experimental Object">
        <path id="expobject_rect" style="stroke-width:3;stroke:#6996cf;fill:#ffffff;stroke-linecap:round" d="M3.950000000000003 3.8999999999999986 l112 0 l0 55 l-112 0 z"/>
        <polygon id="expobj_path" class="bg" style="stroke-width:5;stroke:#e6f2ff;fill:none" points="-0.018000000000000682,-0.017000000000003013 119.867,-0.017000000000003013 119.867,62.983 -0.018000000000000682,62.983"/>
      </g>
    </g>
    <g transform="matrix(1,0,0,1,216,29)">
      <g id="kefed_parameterspec" class="basic" style="groupid:Basic;spriteid:Parameter Specification">
        <path id="indepdrect1" style="stroke-width:3;stroke:#6996cf;fill:#6a99ce;stroke-linecap:round" d="M0.35200000000000387 0.020999999999958163 l25.024 0 l0 76.299 l-25.024 0 z"/>
        <line id="indepdline1" style="stroke:#ffffff;fill:none;stroke-linecap:round" x1="25.252999999999986" y1="50.978999999999985" x2="0.31100000000000705" y2="50.978999999999985"/>
        <line id="indepdline2" style="stroke:#ffffff;fill:none;stroke-linecap:round" x1="25.25200000000001" y1="25.498999999999967" x2="0.2680000000000007" y2="25.498999999999967"/>
        <path id="indepd_path" class="bg" style="stroke-width:5;stroke:#e6f2ff;fill:none;stroke-linecap:round" d="M0.35200000000000387 0.020999999999958163 l25.024 0 l0 76.299 l-25.024 0 z"/>
      </g>
    </g>
    <g transform="matrix(1,0,0,1,215,117)">
      <g id="kefed_parameterspec" class="basic" style="groupid:Basic;spriteid:Parameter Specification">
        <path id="indepdrect1" style="stroke-width:3;stroke:#6996cf;fill:#6a99ce;stroke-linecap:round" d="M0.35200000000000387 0.020999999999958163 l25.024 0 l0 76.299 l-25.024 0 z"/>
        <line id="indepdline1" style="stroke:#ffffff;fill:none;stroke-linecap:round" x1="25.252999999999986" y1="50.978999999999985" x2="0.31100000000000705" y2="50.978999999999985"/>
        <line id="indepdline2" style="stroke:#ffffff;fill:none;stroke-linecap:round" x1="25.25200000000001" y1="25.498999999999967" x2="0.2680000000000007" y2="25.498999999999967"/>
        <path id="indepd_path" class="bg" style="stroke-width:5;stroke:#e6f2ff;fill:none;stroke-linecap:round" d="M0.35200000000000387 0.020999999999958163 l25.024 0 l0 76.299 l-25.024 0 z"/>
      </g>
    </g>
    <g transform="matrix(1,0,0,1,341.25,126.65)">
      <g id="kefed_activity" class="basic" style="groupid:Basic;spriteid:Activity">
        <path id="activity_ellipse" style="stroke-width:3;stroke:#6996cf;fill:#ffffff" d="M60.06699999999999 3.718999999999994 c15.281 0 55.975 5.846 55.975 27.581 c0 18.437 -32.58 27.581 -55.975 27.581 c-49.842 0 -55.975 -23.397 -55.975 -27.581 C4.091999999999999 10.998999999999995 44.17400000000001 3.718999999999994 60.06699999999999 3.718999999999994 z"/>
        <path id="activity_path" class="bg" style="stroke-width:5;stroke:#e6f2ff;fill:none" d="M59.75 0.014000000000010004 c16.312 0 59.75 6.649 59.75 31.368 c0 20.969 -34.777 31.368 -59.75 31.368 C6.546999999999997 62.75 0 36.14099999999999 0 31.382000000000005 C0 8.293000000000006 42.785 0.014000000000010004 59.75 0.014000000000010004 z"/>
      </g>
    </g>
    <g transform="matrix(1,0,0,1,216,215)">
      <g id="kefed_parameterspec" class="basic" style="groupid:Basic;spriteid:Parameter Specification">
        <path id="indepdrect1" style="stroke-width:3;stroke:#6996cf;fill:#6a99ce;stroke-linecap:round" d="M0.35200000000000387 0.020999999999958163 l25.024 0 l0 76.299 l-25.024 0 z"/>
        <line id="indepdline1" style="stroke:#ffffff;fill:none;stroke-linecap:round" x1="25.252999999999986" y1="50.978999999999985" x2="0.31100000000000705" y2="50.978999999999985"/>
        <line id="indepdline2" style="stroke:#ffffff;fill:none;stroke-linecap:round" x1="25.25200000000001" y1="25.498999999999967" x2="0.2680000000000007" y2="25.498999999999967"/>
        <path id="indepd_path" class="bg" style="stroke-width:5;stroke:#e6f2ff;fill:none;stroke-linecap:round" d="M0.35200000000000387 0.020999999999958163 l25.024 0 l0 76.299 l-25.024 0 z"/>
      </g>
    </g>
    <g transform="matrix(1,0,0,1,341.25,225.6)">
      <g id="kefed_activity" class="basic" style="groupid:Basic;spriteid:Activity">
        <path id="activity_ellipse" style="stroke-width:3;stroke:#6996cf;fill:#ffffff" d="M60.06699999999999 3.718999999999994 c15.281 0 55.975 5.846 55.975 27.581 c0 18.437 -32.58 27.581 -55.975 27.581 c-49.842 0 -55.975 -23.397 -55.975 -27.581 C4.091999999999999 10.998999999999995 44.17400000000001 3.718999999999994 60.06699999999999 3.718999999999994 z"/>
        <path id="activity_path" class="bg" style="stroke-width:5;stroke:#e6f2ff;fill:none" d="M59.75 0.014000000000010004 c16.312 0 59.75 6.649 59.75 31.368 c0 20.969 -34.777 31.368 -59.75 31.368 C6.546999999999997 62.75 0 36.14099999999999 0 31.382000000000005 C0 8.293000000000006 42.785 0.014000000000010004 59.75 0.014000000000010004 z"/>
      </g>
    </g>
    <g transform="matrix(1,0,0,1,341.25,324.6)">
      <g id="kefed_activity" class="basic" style="groupid:Basic;spriteid:Activity">
        <path id="activity_ellipse" style="stroke-width:3;stroke:#6996cf;fill:#ffffff" d="M60.06699999999999 3.718999999999994 c15.281 0 55.975 5.846 55.975 27.581 c0 18.437 -32.58 27.581 -55.975 27.581 c-49.842 0 -55.975 -23.397 -55.975 -27.581 C4.091999999999999 10.998999999999995 44.17400000000001 3.718999999999994 60.06699999999999 3.718999999999994 z"/>
        <path id="activity_path" class="bg" style="stroke-width:5;stroke:#e6f2ff;fill:none" d="M59.75 0.014000000000010004 c16.312 0 59.75 6.649 59.75 31.368 c0 20.969 -34.777 31.368 -59.75 31.368 C6.546999999999997 62.75 0 36.14099999999999 0 31.382000000000005 C0 8.293000000000006 42.785 0.014000000000010004 59.75 0.014000000000010004 z"/>
      </g>
    </g>
    <g transform="matrix(1,0,0,1,215,317)">
      <g id="kefed_parameterspec" class="basic" style="groupid:Basic;spriteid:Parameter Specification">
        <path id="indepdrect1" style="stroke-width:3;stroke:#6996cf;fill:#6a99ce;stroke-linecap:round" d="M0.35200000000000387 0.020999999999958163 l25.024 0 l0 76.299 l-25.024 0 z"/>
        <line id="indepdline1" style="stroke:#ffffff;fill:none;stroke-linecap:round" x1="25.252999999999986" y1="50.978999999999985" x2="0.31100000000000705" y2="50.978999999999985"/>
        <line id="indepdline2" style="stroke:#ffffff;fill:none;stroke-linecap:round" x1="25.25200000000001" y1="25.498999999999967" x2="0.2680000000000007" y2="25.498999999999967"/>
        <path id="indepd_path" class="bg" style="stroke-width:5;stroke:#e6f2ff;fill:none;stroke-linecap:round" d="M0.35200000000000387 0.020999999999958163 l25.024 0 l0 76.299 l-25.024 0 z"/>
      </g>
    </g>
    <g transform="matrix(1,0,0,1,363,419.2)">
      <g id="kefed_measurementspec" class="basic" style="groupid:Basic;spriteid:Measurement Specification">
        <path style="stroke-width:3;stroke:#6996cf;fill:#ffffff;stroke-linecap:round" d="M4.063000000000002 4.24199999999999 l55.866 0 l0 55 l-55.866 0 z"/>
        <path style="stroke:#6996cf;fill:#6a99ce;stroke-linecap:round" d="M4.0319999999999965 4.332999999999998 l55.897 0 l0 18.333 l-55.897 0 z"/>
        <line style="stroke:#6996cf;fill:none;stroke-linecap:round" x1="41.263000000000005" y1="4.24199999999999" x2="41.263000000000005" y2="59.24199999999999"/>
        <line style="stroke:#6996cf;fill:none;stroke-linecap:round" x1="22.596000000000004" y1="4.24199999999999" x2="22.596000000000004" y2="59.24199999999999"/>
        <line style="stroke:#6996cf;fill:none;stroke-linecap:round" x1="4.063000000000002" y1="22.57499999999999" x2="59.929" y2="22.57499999999999"/>
        <line style="stroke:#6996cf;fill:none;stroke-linecap:round" x1="4.063000000000002" y1="40.90899999999999" x2="59.929" y2="40.90899999999999"/>
        <path style="stroke:#6996cf;fill:#6a99ce;stroke-linecap:round" d="M4.049000000000007 22.57499999999999 l18.547 0 l0 36.667 l-18.547 0 z"/>
        <line style="stroke:#ffffff;fill:none;stroke-linecap:round" x1="4.049000000000007" y1="40.90899999999999" x2="22.596000000000004" y2="40.90899999999999"/>
        <line style="stroke:#ffffff;fill:none;stroke-linecap:round" x1="4.0319999999999965" y1="22.57499999999999" x2="22.596000000000004" y2="22.57499999999999"/>
        <line style="stroke:#ffffff;fill:none;stroke-linecap:round" x1="22.596000000000004" y1="22.575999999999993" x2="22.596000000000004" y2="4.302999999999997"/>
        <line style="stroke:#ffffff;fill:none;stroke-linecap:round" x1="41.263000000000005" y1="22.57499999999999" x2="41.263000000000005" y2="4.271999999999991"/>
        <polygon id="depv_path" class="bg" style="stroke-width:5;stroke:#e6f2ff;fill:none" points="0,0.09899999999998954 64,-0.0040000000000048885 64,63.099999999999994 0.019000000000005457,63.099999999999994"/>
      </g>
    </g>
    <g transform="matrix(1,0,0,1,346.9,51.9)">
      <g style="groupid:__sys__;spriteid:annotation">
        <svg class="annotation" x="2" y="2" width="100" height="24" viewBox="0 0 100 24">
          <text style="shapeid:annotation" x="0" y="0">
            <tspan x="50" dx="2" dy="16"><![CDATA[Cell-Type
]]></tspan>
            <k:textfield><![CDATA[Cell-Type]]></k:textfield>
          </text>
        </svg>
      </g>
    </g>
    <g transform="matrix(1,0,0,1,117.5,36.3)">
      <g style="groupid:__sys__;spriteid:annotation">
        <svg class="annotation" x="2" y="2" width="100" height="24" viewBox="0 0 100 24">
          <text style="shapeid:annotation" x="0" y="0">
            <tspan x="50" dx="2" dy="16"><![CDATA[cell-type
]]></tspan>
            <k:textfield><![CDATA[cell-type]]></k:textfield>
          </text>
        </svg>
      </g>
    </g>
    <g transform="matrix(1,0,0,1,347,143.4)">
      <g style="groupid:__sys__;spriteid:annotation">
        <svg class="annotation" x="2" y="2" width="100" height="23.25" viewBox="0 0 100 23.25">
          <text style="shapeid:annotation" x="0" y="0">
            <tspan x="50" dx="2" dy="16"><![CDATA[Transfection
]]></tspan>
            <k:textfield><![CDATA[Transfection]]></k:textfield>
          </text>
        </svg>
      </g>
    </g>
    <g transform="matrix(1,0,0,1,348,245.35)">
      <g style="groupid:__sys__;spriteid:annotation">
        <svg class="annotation" x="2" y="2" width="100" height="16" viewBox="0 0 100 16">
          <text style="shapeid:annotation" x="0" y="0">
            <tspan x="50" dx="2" dy="16"><![CDATA[Incubation
]]></tspan>
            <k:textfield><![CDATA[Incubation]]></k:textfield>
          </text>
        </svg>
      </g>
    </g>
    <g transform="matrix(1,0,0,1,130.5,214.3)">
      <g style="groupid:__sys__;spriteid:annotation">
        <svg class="annotation" x="2" y="2" width="84.5" height="24.700000000000003" viewBox="0 0 84.5 24.700000000000003">
          <text style="shapeid:annotation" x="0" y="0">
            <tspan x="42.25" dx="2" dy="16"><![CDATA[reagent
]]></tspan>
            <k:textfield><![CDATA[reagent]]></k:textfield>
          </text>
        </svg>
      </g>
    </g>
    <g transform="matrix(1,0,0,1,126.5,115.3)">
      <g style="groupid:__sys__;spriteid:annotation">
        <svg class="annotation" x="2" y="2" width="100" height="24.700000000000003" viewBox="0 0 100 24.700000000000003">
          <text style="shapeid:annotation" x="0" y="0">
            <tspan x="50" dx="2" dy="16"><![CDATA[gene
]]></tspan>
            <k:textfield><![CDATA[gene]]></k:textfield>
          </text>
        </svg>
      </g>
    </g>
    <g transform="matrix(1,0,0,1,347,343.35)">
      <g style="groupid:__sys__;spriteid:annotation">
        <svg class="annotation" x="2" y="2" width="100" height="16" viewBox="0 0 100 16">
          <text style="shapeid:annotation" x="0" y="0">
            <tspan x="50" dx="2" dy="16"><![CDATA[Western Blot
]]></tspan>
            <k:textfield><![CDATA[Western Blot]]></k:textfield>
          </text>
        </svg>
      </g>
    </g>
    <g transform="matrix(1,0,0,1,120.5,327.3)">
      <g style="groupid:__sys__;spriteid:annotation">
        <svg class="annotation" x="2" y="2" width="100" height="40" viewBox="0 0 100 40">
          <text style="shapeid:annotation" x="0" y="0">
            <tspan x="50" dx="2" dy="16"><![CDATA[primary-]]></tspan>
            <tspan x="50" dx="2" dy="17"><![CDATA[antibody
]]></tspan>
            <k:textfield><![CDATA[primary-antibody]]></k:textfield>
          </text>
        </svg>
      </g>
    </g>
    <g transform="matrix(1,0,0,1,345,482.3)">
      <g style="groupid:__sys__;spriteid:annotation">
        <svg class="annotation" x="2" y="2" width="100" height="16" viewBox="0 0 100 16">
          <text style="shapeid:annotation" x="0" y="0">
            <tspan x="50" dx="2" dy="16"><![CDATA[protein-level
]]></tspan>
            <k:textfield><![CDATA[protein-level]]></k:textfield>
          </text>
        </svg>
      </g>
    </g>
    <rect style="fill-opacity:1;stroke-width:1;stroke:#838ea8;stroke-opacity:1;fill:#eeeeee" x="0" y="0" rx="0" ry="0" width="31" height="518.3"/>
    <text style="font-family:arial;fill:#4f5e66;font-size:10px" transform="matrix(6.123233995736766e-17,-1,1,6.123233995736766e-17,0,127.25)" x="0" y="0">
      <tspan x="0" dx="2" dy="11"><![CDATA[GTP-association[BDPD]
]]></tspan>
      <k:textfield><![CDATA[GTP-association[BDPD]]]></k:textfield>
    </text>
    <rect style="fill-opacity:0;stroke-width:1;stroke:#838ea8;stroke-opacity:1;fill:#000000" x="0" y="0" rx="0" ry="0" width="510.75" height="518.3"/>
  </svg>
  <rect style="fill-opacity:1;stroke-width:1;stroke:#838ea8;stroke-opacity:1;fill:#cccccc" x="-31" y="0" rx="0" ry="0" width="31" height="518.3"/>
  <text style="font-family:arial;fill:#4f5e66;font-size:10px" transform="matrix(6.123233995736766e-17,-1,1,6.123233995736766e-17,-31,75.05)" x="0" y="0">
    <tspan x="0" dx="2" dy="11"><![CDATA[Kefed Model
]]></tspan>
    <k:textfield><![CDATA[Kefed Model]]></k:textfield>
  </text>
</svg>