<svg xmlns="http://www.w3.org/2000/svg" version="1.1" x="0" y="0" width="578" height="681.55" viewBox="0 0 578 681.55" xmlns:k="http://schemas.kapit.fr/svg/2007/" xmlns:xlink="http://www.w3.org/1999/xlink">
  <defs>
    <style type="text/css"><![CDATA[.background
{
fill-opacity:0;
fill:#008000
}

.annotation
{
lock:all;
font-family:Arial;
action-doubleclick:textedit;
text-anchor:middle;
wordwrap:true;
fill:#666666
}

.link-annotation
{
lock:all;
font-family:Arial;
action-doubleclick:textedit;
text-anchor:middle;
wordwrap:true;
fill:#0000ff
}

.select-ui-rect
{
stroke:#0000ff;
stroke-opacity:0.2;
stroke-width:2;
fill-opacity:0;
fill:#0000ff
}

.select-ui-knob
{
stroke:#ffffff;
stroke-opacity:1;
stroke-width:1;
fill-opacity:0.2;
fill:#0000ff
}

.lanescope-link
{
stroke:#aaaaaa;
stroke-opacity:1;
stroke-width:2;
fill:#aaaaaa
}

.feedback-link
{
stroke:#66ff00;
stroke-opacity:1;
stroke-width:2;
fill:#66ff00
}

.panelscope-link
{
stroke:#8787de;
stroke-opacity:1;
stroke-width:2;
fill:#8787de
}

.viewscope-link
{
stroke:#8787de;
stroke-opacity:1;
stroke-width:2;
stroke-dasharray:2,4,10,4;
fill:#8787de
}

.link-ui
{
stroke:#000000;
stroke-opacity:0.2;
stroke-width:2
}

.link-ui-knob
{
stroke:#666666;
stroke-opacity:1;
stroke-width:1;
fill-opacity:1;
fill:#ffffff
}

.link-ui-knob-selected
{
stroke:#666666;
stroke-opacity:1;
stroke-width:1;
fill-opacity:1;
fill:#ffa500
}

.feedback-sprite
{
stroke:#66ff00;
stroke-opacity:1;
stroke-width:2;
fill-opacity:0.7;
fill:#66ff00
}


.basic
{
action-accept:annotation
}

.outonly
{
action-click:link
}

.bg
{
action-click:link;
action-accept:link
}

.annotation
{
font-style:italic
}

.link-annotation
{
fill:#666666;
font-size:12px
}


]]></style>
  </defs>
  <svg x="0" y="0" width="516" height="681.55" viewBox="0 0 516 681.55">
    <g transform="matrix(1,0,0,1,184.45,98)">
      <path class="lanescope-link" style="fill:none" d="M9.2 13 L84.15 13"/>
      <path class="lanescope-link" style="stroke-width:0" d="M72.15 13 L72.15 10 84.15 13 72.15 16 z"/>
    </g>
    <g transform="matrix(1,0,0,1,334,140)">
      <path class="lanescope-link" style="fill:none" d="M0 3.8 L0 33.4"/>
      <path class="lanescope-link" style="stroke-width:0" d="M-7.347880794884119e-16 21.4 L2.999999999999999 21.4 0 33.4 -3.000000000000001 21.4 z"/>
    </g>
    <g transform="matrix(1,0,0,1,331,237.85)">
      <path class="lanescope-link" style="fill:none" d="M0 2.35 L0 40.65"/>
      <path class="lanescope-link" style="stroke-width:0" d="M-7.347880794884119e-16 28.65 L2.999999999999999 28.65 0 40.65 -3.000000000000001 28.65 z"/>
    </g>
    <g transform="matrix(1,0,0,1,103,216.85)">
      <path class="lanescope-link" style="fill:none" d="M61.4 -3 L167.2 -3"/>
      <path class="lanescope-link" style="stroke-width:0" d="M155.2 -3 L155.2 -6 167.2 -3 155.2 0 z"/>
    </g>
    <g transform="matrix(1,0,0,1,192.5,210)">
      <path class="lanescope-link" style="fill:none" d="M-63.9 -15 L79.35 -15"/>
      <path class="lanescope-link" style="stroke-width:0" d="M67.35 -15 L67.35 -18 79.35 -15 67.35 -12 z"/>
    </g>
    <g transform="matrix(1,0,0,1,332.75,297)">
      <path class="lanescope-link" style="fill:none" d="M3.25 48.5 L3.25 77.7"/>
      <path class="lanescope-link" style="stroke-width:0" d="M3.249999999999999 65.7 L6.249999999999999 65.7 3.25 77.7 0.2499999999999991 65.7 z"/>
    </g>
    <g transform="matrix(1,0,0,1,194,310)">
      <path class="lanescope-link" style="fill:none" d="M35.8 1 L77.65 1"/>
      <path class="lanescope-link" style="stroke-width:0" d="M65.65 1 L65.65 -2 77.65 1 65.65 4 z"/>
    </g>
    <g transform="matrix(1,0,0,1,336,355)">
      <path class="lanescope-link" style="fill:none" d="M-1 86.3 L-1 107.65"/>
      <path class="lanescope-link" style="stroke-width:0" d="M-1.0000000000000007 95.65 L1.9999999999999991 95.65 -1 107.65 -4.000000000000001 95.65 z"/>
    </g>
    <g transform="matrix(1,0,0,1,335,465)">
      <path class="lanescope-link" style="fill:none" d="M0 64.3 L0 118.65"/>
      <path class="lanescope-link" style="stroke-width:0" d="M-7.347880794884119e-16 106.65 L2.999999999999999 106.65 0 118.65 -3.000000000000001 106.65 z"/>
    </g>
    <g transform="matrix(1,0,0,1,270,79)">
      <g id="kefed_expobject" class="basic" style="spriteid:Experimental Object;groupid:Basic">
        <path id="expobject_rect" style="stroke-width:3;stroke-linecap:round;fill:#ffffff;stroke:#6996cf" d="M3.950000000000003 3.8999999999999986 l112 0 l0 55 l-112 0 z"/>
        <polygon id="expobj_path" class="bg" style="stroke-width:5;fill:none;stroke:#e6f2ff" points="-0.018000000000000682,-0.017000000000003013 119.867,-0.017000000000003013 119.867,62.983 -0.018000000000000682,62.983"/>
      </g>
    </g>
    <g transform="matrix(1,0,0,1,271,175.85)">
      <g id="kefed_activity" class="basic" style="spriteid:Activity;groupid:Basic">
        <path id="activity_ellipse" style="stroke-width:3;fill:#ffffff;stroke:#6996cf" d="M60.06699999999999 3.718999999999994 c15.281 0 55.975 5.846 55.975 27.581 c0 18.437 -32.58 27.581 -55.975 27.581 c-49.842 0 -55.975 -23.397 -55.975 -27.581 C4.091999999999999 10.998999999999995 44.17400000000001 3.718999999999994 60.06699999999999 3.718999999999994 z"/>
        <path id="activity_path" class="bg" style="stroke-width:5;fill:none;stroke:#e6f2ff" d="M59.75 0.014000000000010004 c16.312 0 59.75 6.649 59.75 31.368 c0 20.969 -34.777 31.368 -59.75 31.368 C6.546999999999997 62.75 0 36.14099999999999 0 31.382000000000005 C0 8.293000000000006 42.785 0.014000000000010004 59.75 0.014000000000010004 z"/>
      </g>
    </g>
    <g transform="matrix(1,0,0,1,166.4,71)">
      <g id="kefed_parameterspec" class="basic" style="spriteid:Parameter Specification;groupid:Basic">
        <path id="indepdrect1" style="stroke-width:3;stroke-linecap:round;fill:#6a99ce;stroke:#6996cf" d="M0.35200000000000387 0.020999999999958163 l25.024 0 l0 76.299 l-25.024 0 z"/>
        <line id="indepdline1" style="stroke-linecap:round;fill:none;stroke:#ffffff" x1="25.252999999999986" y1="50.978999999999985" x2="0.31100000000000705" y2="50.978999999999985"/>
        <line id="indepdline2" style="stroke-linecap:round;fill:none;stroke:#ffffff" x1="25.25200000000001" y1="25.498999999999967" x2="0.2680000000000007" y2="25.498999999999967"/>
        <path id="indepd_path" class="bg" style="stroke-width:5;stroke-linecap:round;fill:none;stroke:#e6f2ff" d="M0.35200000000000387 0.020999999999958163 l25.024 0 l0 76.299 l-25.024 0 z"/>
      </g>
    </g>
    <g transform="matrix(1,0,0,1,101.5,149)">
      <g id="kefed_parameterspec" class="basic" style="spriteid:Parameter Specification;groupid:Basic">
        <path id="indepdrect1" style="stroke-width:3;stroke-linecap:round;fill:#6a99ce;stroke:#6996cf" d="M0.35200000000000387 0.020999999999958163 l25.024 0 l0 76.299 l-25.024 0 z"/>
        <line id="indepdline1" style="stroke-linecap:round;fill:none;stroke:#ffffff" x1="25.252999999999986" y1="50.978999999999985" x2="0.31100000000000705" y2="50.978999999999985"/>
        <line id="indepdline2" style="stroke-linecap:round;fill:none;stroke:#ffffff" x1="25.25200000000001" y1="25.498999999999967" x2="0.2680000000000007" y2="25.498999999999967"/>
        <path id="indepd_path" class="bg" style="stroke-width:5;stroke-linecap:round;fill:none;stroke:#e6f2ff" d="M0.35200000000000387 0.020999999999958163 l25.024 0 l0 76.299 l-25.024 0 z"/>
      </g>
    </g>
    <g transform="matrix(1,0,0,1,273,280.9)">
      <g id="kefed_activity" class="basic" style="spriteid:Activity;groupid:Basic">
        <path id="activity_ellipse" style="stroke-width:3;fill:#ffffff;stroke:#6996cf" d="M60.06699999999999 3.718999999999994 c15.281 0 55.975 5.846 55.975 27.581 c0 18.437 -32.58 27.581 -55.975 27.581 c-49.842 0 -55.975 -23.397 -55.975 -27.581 C4.091999999999999 10.998999999999995 44.17400000000001 3.718999999999994 60.06699999999999 3.718999999999994 z"/>
        <path id="activity_path" class="bg" style="stroke-width:5;fill:none;stroke:#e6f2ff" d="M59.75 0.014000000000010004 c16.312 0 59.75 6.649 59.75 31.368 c0 20.969 -34.777 31.368 -59.75 31.368 C6.546999999999997 62.75 0 36.14099999999999 0 31.382000000000005 C0 8.293000000000006 42.785 0.014000000000010004 59.75 0.014000000000010004 z"/>
      </g>
    </g>
    <g transform="matrix(1,0,0,1,202,284)">
      <g id="kefed_parameterspec" class="basic" style="spriteid:Parameter Specification;groupid:Basic">
        <path id="indepdrect1" style="stroke-width:3;stroke-linecap:round;fill:#6a99ce;stroke:#6996cf" d="M0.35200000000000387 0.020999999999958163 l25.024 0 l0 76.299 l-25.024 0 z"/>
        <line id="indepdline1" style="stroke-linecap:round;fill:none;stroke:#ffffff" x1="25.252999999999986" y1="50.978999999999985" x2="0.31100000000000705" y2="50.978999999999985"/>
        <line id="indepdline2" style="stroke-linecap:round;fill:none;stroke:#ffffff" x1="25.25200000000001" y1="25.498999999999967" x2="0.2680000000000007" y2="25.498999999999967"/>
        <path id="indepd_path" class="bg" style="stroke-width:5;stroke-linecap:round;fill:none;stroke:#e6f2ff" d="M0.35200000000000387 0.020999999999958163 l25.024 0 l0 76.299 l-25.024 0 z"/>
      </g>
    </g>
    <g transform="matrix(1,0,0,1,275.25,464.6)">
      <g id="kefed_activity" class="basic" style="spriteid:Activity;groupid:Basic">
        <path id="activity_ellipse" style="stroke-width:3;fill:#ffffff;stroke:#6996cf" d="M60.06699999999999 3.718999999999994 c15.281 0 55.975 5.846 55.975 27.581 c0 18.437 -32.58 27.581 -55.975 27.581 c-49.842 0 -55.975 -23.397 -55.975 -27.581 C4.091999999999999 10.998999999999995 44.17400000000001 3.718999999999994 60.06699999999999 3.718999999999994 z"/>
        <path id="activity_path" class="bg" style="stroke-width:5;fill:none;stroke:#e6f2ff" d="M59.75 0.014000000000010004 c16.312 0 59.75 6.649 59.75 31.368 c0 20.969 -34.777 31.368 -59.75 31.368 C6.546999999999997 62.75 0 36.14099999999999 0 31.382000000000005 C0 8.293000000000006 42.785 0.014000000000010004 59.75 0.014000000000010004 z"/>
      </g>
    </g>
    <g transform="matrix(1,0,0,1,303,552.45)">
      <g id="kefed_measurementspec" class="basic" style="spriteid:Measurement Specification;groupid:Basic">
        <path style="stroke-width:3;stroke-linecap:round;fill:#ffffff;stroke:#6996cf" d="M4.063000000000002 4.24199999999999 l55.866 0 l0 55 l-55.866 0 z"/>
        <path style="stroke-linecap:round;fill:#6a99ce;stroke:#6996cf" d="M4.0319999999999965 4.332999999999998 l55.897 0 l0 18.333 l-55.897 0 z"/>
        <line style="stroke-linecap:round;fill:none;stroke:#6996cf" x1="41.263000000000005" y1="4.24199999999999" x2="41.263000000000005" y2="59.24199999999999"/>
        <line style="stroke-linecap:round;fill:none;stroke:#6996cf" x1="22.596000000000004" y1="4.24199999999999" x2="22.596000000000004" y2="59.24199999999999"/>
        <line style="stroke-linecap:round;fill:none;stroke:#6996cf" x1="4.063000000000002" y1="22.57499999999999" x2="59.929" y2="22.57499999999999"/>
        <line style="stroke-linecap:round;fill:none;stroke:#6996cf" x1="4.063000000000002" y1="40.90899999999999" x2="59.929" y2="40.90899999999999"/>
        <path style="stroke-linecap:round;fill:#6a99ce;stroke:#6996cf" d="M4.049000000000007 22.57499999999999 l18.547 0 l0 36.667 l-18.547 0 z"/>
        <line style="stroke-linecap:round;fill:none;stroke:#ffffff" x1="4.049000000000007" y1="40.90899999999999" x2="22.596000000000004" y2="40.90899999999999"/>
        <line style="stroke-linecap:round;fill:none;stroke:#ffffff" x1="4.0319999999999965" y1="22.57499999999999" x2="22.596000000000004" y2="22.57499999999999"/>
        <line style="stroke-linecap:round;fill:none;stroke:#ffffff" x1="22.596000000000004" y1="22.575999999999993" x2="22.596000000000004" y2="4.302999999999997"/>
        <line style="stroke-linecap:round;fill:none;stroke:#ffffff" x1="41.263000000000005" y1="22.57499999999999" x2="41.263000000000005" y2="4.271999999999991"/>
        <polygon id="depv_path" class="bg" style="stroke-width:5;fill:none;stroke:#e6f2ff" points="0,0.09899999999998954 64,-0.0040000000000048885 64,63.099999999999994 0.019000000000005457,63.099999999999994"/>
      </g>
    </g>
    <g transform="matrix(1,0,0,1,304,376.45)">
      <g id="kefed_measurementspec" class="basic" style="spriteid:Measurement Specification;groupid:Basic">
        <path style="stroke-width:3;stroke-linecap:round;fill:#ffffff;stroke:#6996cf" d="M4.063000000000002 4.24199999999999 l55.866 0 l0 55 l-55.866 0 z"/>
        <path style="stroke-linecap:round;fill:#6a99ce;stroke:#6996cf" d="M4.0319999999999965 4.332999999999998 l55.897 0 l0 18.333 l-55.897 0 z"/>
        <line style="stroke-linecap:round;fill:none;stroke:#6996cf" x1="41.263000000000005" y1="4.24199999999999" x2="41.263000000000005" y2="59.24199999999999"/>
        <line style="stroke-linecap:round;fill:none;stroke:#6996cf" x1="22.596000000000004" y1="4.24199999999999" x2="22.596000000000004" y2="59.24199999999999"/>
        <line style="stroke-linecap:round;fill:none;stroke:#6996cf" x1="4.063000000000002" y1="22.57499999999999" x2="59.929" y2="22.57499999999999"/>
        <line style="stroke-linecap:round;fill:none;stroke:#6996cf" x1="4.063000000000002" y1="40.90899999999999" x2="59.929" y2="40.90899999999999"/>
        <path style="stroke-linecap:round;fill:#6a99ce;stroke:#6996cf" d="M4.049000000000007 22.57499999999999 l18.547 0 l0 36.667 l-18.547 0 z"/>
        <line style="stroke-linecap:round;fill:none;stroke:#ffffff" x1="4.049000000000007" y1="40.90899999999999" x2="22.596000000000004" y2="40.90899999999999"/>
        <line style="stroke-linecap:round;fill:none;stroke:#ffffff" x1="4.0319999999999965" y1="22.57499999999999" x2="22.596000000000004" y2="22.57499999999999"/>
        <line style="stroke-linecap:round;fill:none;stroke:#ffffff" x1="22.596000000000004" y1="22.575999999999993" x2="22.596000000000004" y2="4.302999999999997"/>
        <line style="stroke-linecap:round;fill:none;stroke:#ffffff" x1="41.263000000000005" y1="22.57499999999999" x2="41.263000000000005" y2="4.271999999999991"/>
        <polygon id="depv_path" class="bg" style="stroke-width:5;fill:none;stroke:#e6f2ff" points="0,0.09899999999998954 64,-0.0040000000000048885 64,63.099999999999994 0.019000000000005457,63.099999999999994"/>
      </g>
    </g>
    <g transform="matrix(1,0,0,1,137,216)">
      <g id="kefed_parameterspec" class="basic" style="spriteid:Parameter Specification;groupid:Basic">
        <path id="indepdrect1" style="stroke-width:3;stroke-linecap:round;fill:#6a99ce;stroke:#6996cf" d="M0.35200000000000387 0.020999999999958163 l25.024 0 l0 76.299 l-25.024 0 z"/>
        <line id="indepdline1" style="stroke-linecap:round;fill:none;stroke:#ffffff" x1="25.252999999999986" y1="50.978999999999985" x2="0.31100000000000705" y2="50.978999999999985"/>
        <line id="indepdline2" style="stroke-linecap:round;fill:none;stroke:#ffffff" x1="25.25200000000001" y1="25.498999999999967" x2="0.2680000000000007" y2="25.498999999999967"/>
        <path id="indepd_path" class="bg" style="stroke-width:5;stroke-linecap:round;fill:none;stroke:#e6f2ff" d="M0.35200000000000387 0.020999999999958163 l25.024 0 l0 76.299 l-25.024 0 z"/>
      </g>
    </g>
    <g transform="matrix(1,0,0,1,279.9,90)">
      <g style="spriteid:annotation;groupid:__sys__">
        <svg class="annotation" x="2" y="2" width="100" height="38" viewBox="0 0 100 38">
          <text style="shapeid:annotation" x="0" y="0">
            <tspan x="50" dx="2" dy="16"><![CDATA[Tagged ]]></tspan>
            <tspan x="50" dx="2" dy="17"><![CDATA[Fragment
]]></tspan>
            <k:textfield><![CDATA[Tagged Fragment]]></k:textfield>
          </text>
        </svg>
      </g>
    </g>
    <g transform="matrix(1,0,0,1,273.75,298.65)">
      <g style="spriteid:annotation;groupid:__sys__">
        <svg class="annotation" x="2" y="2" width="100" height="18.25" viewBox="0 0 100 18.25">
          <text style="shapeid:annotation" x="0" y="0">
            <tspan x="50" dx="2" dy="16"><![CDATA[Western Blot
]]></tspan>
            <k:textfield><![CDATA[Western Blot]]></k:textfield>
          </text>
        </svg>
      </g>
    </g>
    <g transform="matrix(1,0,0,1,275.75,183.6)">
      <g style="spriteid:annotation;groupid:__sys__">
        <svg class="annotation" x="2" y="2" width="100" height="38.25" viewBox="0 0 100 38.25">
          <text style="shapeid:annotation" x="0" y="0">
            <tspan x="50" dx="2" dy="16"><![CDATA[Binding
]]></tspan>
            <tspan x="50" dx="2" dy="17"><![CDATA[Reaction
]]></tspan>
            <k:textfield><![CDATA[Binding
Reaction]]></k:textfield>
          </text>
        </svg>
      </g>
    </g>
    <g transform="matrix(1,0,0,1,69.9,78.3)">
      <g style="spriteid:annotation;groupid:__sys__">
        <svg class="annotation" x="2" y="2" width="100" height="53.7" viewBox="0 0 100 53.7">
          <text style="shapeid:annotation" x="0" y="0">
            <tspan x="50" dx="2" dy="16"><![CDATA[tagged-]]></tspan>
            <tspan x="50" dx="2" dy="17"><![CDATA[molecular-]]></tspan>
            <tspan x="50" dx="2" dy="17"><![CDATA[fragment
]]></tspan>
            <k:textfield><![CDATA[tagged-molecular-fragment]]></k:textfield>
          </text>
        </svg>
      </g>
    </g>
    <g transform="matrix(1,0,0,1,5,159.3)">
      <g style="spriteid:annotation;groupid:__sys__">
        <svg class="annotation" x="2" y="2" width="100" height="64" viewBox="0 0 100 64">
          <text style="shapeid:annotation" x="0" y="0">
            <tspan x="50" dx="2" dy="16"><![CDATA[primary-]]></tspan>
            <tspan x="50" dx="2" dy="17"><![CDATA[molecular-]]></tspan>
            <tspan x="50" dx="2" dy="17"><![CDATA[fragment
]]></tspan>
            <k:textfield><![CDATA[primary-molecular-fragment]]></k:textfield>
          </text>
        </svg>
      </g>
    </g>
    <g transform="matrix(1,0,0,1,36.5,232.3)">
      <g style="spriteid:annotation;groupid:__sys__">
        <svg class="annotation" x="2" y="2" width="100" height="52.7" viewBox="0 0 100 52.7">
          <text style="shapeid:annotation" x="0" y="0">
            <tspan x="50" dx="2" dy="16"><![CDATA[competing-]]></tspan>
            <tspan x="50" dx="2" dy="17"><![CDATA[molecular-]]></tspan>
            <tspan x="50" dx="2" dy="17"><![CDATA[fragment
]]></tspan>
            <k:textfield><![CDATA[competing-molecular-fragment]]></k:textfield>
          </text>
        </svg>
      </g>
    </g>
    <g transform="matrix(1,0,0,1,366,396.55)">
      <g style="spriteid:annotation;groupid:__sys__">
        <svg class="annotation" x="2" y="2" width="100" height="43" viewBox="0 0 100 43">
          <text style="shapeid:annotation" x="0" y="0">
            <tspan x="50" dx="2" dy="16"><![CDATA[band-density
]]></tspan>
            <k:textfield><![CDATA[band-density]]></k:textfield>
          </text>
        </svg>
      </g>
    </g>
    <g transform="matrix(1,0,0,1,285,476.35)">
      <g style="spriteid:annotation;groupid:__sys__">
        <svg class="annotation" x="2" y="2" width="100" height="38" viewBox="0 0 100 38">
          <text style="shapeid:annotation" x="0" y="0">
            <tspan x="50" dx="2" dy="16"><![CDATA[densiometric-]]></tspan>
            <tspan x="50" dx="2" dy="17"><![CDATA[scanning
]]></tspan>
            <k:textfield><![CDATA[densiometric-scanning]]></k:textfield>
          </text>
        </svg>
      </g>
    </g>
    <g transform="matrix(1,0,0,1,285,615.55)">
      <g style="spriteid:annotation;groupid:__sys__">
        <svg class="annotation" x="2" y="2" width="100" height="46" viewBox="0 0 100 46">
          <text style="shapeid:annotation" x="0" y="0">
            <tspan x="50" dx="2" dy="16"><![CDATA[percent-of-]]></tspan>
            <tspan x="50" dx="2" dy="17"><![CDATA[input
]]></tspan>
            <k:textfield><![CDATA[percent-of-input]]></k:textfield>
          </text>
        </svg>
      </g>
    </g>
    <g transform="matrix(1,0,0,1,164.5,360.3)">
      <g style="spriteid:annotation;groupid:__sys__">
        <svg class="annotation" x="2" y="2" width="100" height="27.700000000000003" viewBox="0 0 100 27.700000000000003">
          <text style="shapeid:annotation" x="0" y="0">
            <tspan x="50" dx="2" dy="16"><![CDATA[antibody
]]></tspan>
            <k:textfield><![CDATA[antibody]]></k:textfield>
          </text>
        </svg>
      </g>
    </g>
    <rect style="stroke-opacity:1;stroke-width:1;fill-opacity:1;fill:#eeeeee;stroke:#838ea8" x="0" y="0" rx="0" ry="0" width="31" height="681.55"/>
    <text style="font-family:arial;fill:#4f5e66;font-size:10px" transform="matrix(6.123233995736766e-17,-1,1,6.123233995736766e-17,0,170.9)" x="0" y="0">
      <tspan x="0" dx="2" dy="11"><![CDATA[In Vitro Competitive Binding Assay
]]></tspan>
      <k:textfield><![CDATA[In Vitro Competitive Binding Assay]]></k:textfield>
    </text>
    <rect style="stroke-opacity:1;stroke-width:1;fill-opacity:0;fill:#000000;stroke:#838ea8" x="0" y="0" rx="0" ry="0" width="516" height="681.55"/>
  </svg>
  <rect style="stroke-opacity:1;stroke-width:1;fill-opacity:1;fill:#cccccc;stroke:#838ea8" x="-31" y="0" rx="0" ry="0" width="31" height="681.55"/>
  <text style="font-family:arial;fill:#4f5e66;font-size:10px" transform="matrix(6.123233995736766e-17,-1,1,6.123233995736766e-17,-31,170.9)" x="0" y="0">
    <tspan x="0" dx="2" dy="11"><![CDATA[In Vitro Competitive Binding Assay
]]></tspan>
    <k:textfield><![CDATA[In Vitro Competitive Binding Assay]]></k:textfield>
  </text>
</svg>