<svg xmlns="http://www.w3.org/2000/svg" version="1.1" x="0" y="0" width="481.75" height="571.55" viewBox="0 0 481.75 571.55" xmlns:k="http://schemas.kapit.fr/svg/2007/" xmlns:xlink="http://www.w3.org/1999/xlink">
  <defs>
    <style type="text/css"><![CDATA[.background
{
fill-opacity:0;
fill:#008000
}

.annotation
{
lock:all;
font-family:Arial;
action-doubleclick:textedit;
text-anchor:middle;
wordwrap:true;
fill:#666666
}

.link-annotation
{
lock:all;
font-family:Arial;
action-doubleclick:textedit;
text-anchor:middle;
wordwrap:true;
fill:#0000ff
}

.select-ui-rect
{
stroke:#0000ff;
stroke-opacity:0.2;
stroke-width:2;
fill-opacity:0;
fill:#0000ff
}

.select-ui-knob
{
stroke:#ffffff;
stroke-opacity:1;
stroke-width:1;
fill-opacity:0.2;
fill:#0000ff
}

.lanescope-link
{
stroke:#aaaaaa;
stroke-opacity:1;
stroke-width:2;
fill:#aaaaaa
}

.feedback-link
{
stroke:#66ff00;
stroke-opacity:1;
stroke-width:2;
fill:#66ff00
}

.panelscope-link
{
stroke:#8787de;
stroke-opacity:1;
stroke-width:2;
fill:#8787de
}

.viewscope-link
{
stroke:#8787de;
stroke-opacity:1;
stroke-width:2;
stroke-dasharray:2,4,10,4;
fill:#8787de
}

.link-ui
{
stroke:#000000;
stroke-opacity:0.2;
stroke-width:2
}

.link-ui-knob
{
stroke:#666666;
stroke-opacity:1;
stroke-width:1;
fill-opacity:1;
fill:#ffffff
}

.link-ui-knob-selected
{
stroke:#666666;
stroke-opacity:1;
stroke-width:1;
fill-opacity:1;
fill:#ffa500
}

.feedback-sprite
{
stroke:#66ff00;
stroke-opacity:1;
stroke-width:2;
fill-opacity:0.7;
fill:#66ff00
}


.basic
{
action-accept:annotation
}

.outonly
{
action-click:link
}

.bg
{
action-click:link;
action-accept:link
}

.annotation
{
font-style:italic
}

.link-annotation
{
fill:#666666;
font-size:12px
}


]]></style>
  </defs>
  <svg x="0" y="0" width="419.75" height="571.55" viewBox="0 0 419.75 571.55">
    <g transform="matrix(1,0,0,1,173.5,99)">
      <path class="lanescope-link" style="fill:none" d="M0.8 0 L68.95 0"/>
      <path class="lanescope-link" style="stroke-width:0" d="M56.95 0 L56.95 -3 68.95 0 56.95 3 z"/>
    </g>
    <g transform="matrix(1,0,0,1,303.9,55)">
      <path class="lanescope-link" style="fill:none" d="M1.1 84.35 L1.1 115.7"/>
      <path class="lanescope-link" style="stroke-width:0" d="M1.0999999999999994 103.7 L4.1 103.7 1.1 115.7 -1.9000000000000008 103.7 z"/>
    </g>
    <g transform="matrix(1,0,0,1,184,195)">
      <path class="lanescope-link" style="fill:none" d="M0.25 8 L59.75 8"/>
      <path class="lanescope-link" style="stroke-width:0" d="M47.75 8 L47.75 5 59.75 8 47.75 11 z"/>
    </g>
    <g transform="matrix(1,0,0,1,305,157)">
      <path class="lanescope-link" style="fill:none" d="M0 80.15 L0 113.75"/>
      <path class="lanescope-link" style="stroke-width:0" d="M-7.347880794884119e-16 101.75 L2.999999999999999 101.75 0 113.75 -3.000000000000001 101.75 z"/>
    </g>
    <g transform="matrix(1,0,0,1,155.45,294.3)">
      <path class="lanescope-link" style="fill:none" d="M26.8 0 L88.95 0"/>
      <path class="lanescope-link" style="stroke-width:0" d="M76.95 0 L76.95 -3 88.95 0 76.95 3 z"/>
    </g>
    <g transform="matrix(1,0,0,1,305,245)">
      <path class="lanescope-link" style="fill:none" d="M5 92.35 L5 119.55"/>
      <path class="lanescope-link" style="stroke-width:0" d="M4.999999999999999 107.55 L7.999999999999999 107.55 5 119.55 1.9999999999999991 107.55 z"/>
    </g>
    <g transform="matrix(1,0,0,1,219.4,399)">
      <path class="lanescope-link" style="fill:none" d="M0.45 0 L29.35 0"/>
      <path class="lanescope-link" style="stroke-width:0" d="M17.35 0 L17.35 -3 29.35 0 17.35 3 z"/>
    </g>
    <g transform="matrix(1,0,0,1,310,364)">
      <path class="lanescope-link" style="fill:none" d="M-1 67.5 L-1 106.4"/>
      <path class="lanescope-link" style="stroke-width:0" d="M-1.0000000000000007 94.4 L1.9999999999999991 94.4 -1 106.4 -4.000000000000001 94.4 z"/>
    </g>
    <g transform="matrix(1,0,0,1,147.5,85)">
      <g id="kefed_constantspec" class="basic" style="spriteid:Constant Specification;groupid:Basic">
        <path id="cntrldrect1_1_" style="stroke-width:3;stroke-linecap:round;fill:#6a99ce;stroke:#6996cf" d="M0.0020000000000095497 0.020999999999958163 l25.024 0 l0 25.299 l-25.024 0 z"/>
        <path id="cntrld_path_1_" class="bg" style="stroke-width:5;stroke-linecap:round;fill:none;stroke:#e6f2ff" d="M0.0020000000000095497 0.020999999999958163 l25.024 0 l0 28.299 l-25.024 0 z"/>
      </g>
    </g>
    <g transform="matrix(1,0,0,1,244,74.6)">
      <g id="kefed_expobject" class="basic" style="spriteid:Experimental Object;groupid:Basic">
        <path id="expobject_rect" style="stroke-width:3;stroke-linecap:round;fill:#ffffff;stroke:#6996cf" d="M3.950000000000003 3.8999999999999986 l112 0 l0 55 l-112 0 z"/>
        <polygon id="expobj_path" class="bg" style="stroke-width:5;fill:none;stroke:#e6f2ff" points="-0.018000000000000682,-0.017000000000003013 119.867,-0.017000000000003013 119.867,62.983 -0.018000000000000682,62.983"/>
      </g>
    </g>
    <g transform="matrix(1,0,0,1,245.25,172.6)">
      <g id="kefed_activity" class="basic" style="spriteid:Activity;groupid:Basic">
        <path id="activity_ellipse" style="stroke-width:3;fill:#ffffff;stroke:#6996cf" d="M60.06699999999999 3.718999999999994 c15.281 0 55.975 5.846 55.975 27.581 c0 18.437 -32.58 27.581 -55.975 27.581 c-49.842 0 -55.975 -23.397 -55.975 -27.581 C4.091999999999999 10.998999999999995 44.17400000000001 3.718999999999994 60.06699999999999 3.718999999999994 z"/>
        <path id="activity_path" class="bg" style="stroke-width:5;fill:none;stroke:#e6f2ff" d="M59.75 0.014000000000010004 c16.312 0 59.75 6.649 59.75 31.368 c0 20.969 -34.777 31.368 -59.75 31.368 C6.546999999999997 62.75 0 36.14099999999999 0 31.382000000000005 C0 8.293000000000006 42.785 0.014000000000010004 59.75 0.014000000000010004 z"/>
      </g>
    </g>
    <g transform="matrix(1,0,0,1,156,170)">
      <g id="kefed_parameterspec" class="basic" style="spriteid:Parameter Specification;groupid:Basic">
        <path id="indepdrect1" style="stroke-width:3;stroke-linecap:round;fill:#6a99ce;stroke:#6996cf" d="M0.35200000000000387 0.020999999999958163 l25.024 0 l0 76.299 l-25.024 0 z"/>
        <line id="indepdline1" style="stroke-linecap:round;fill:none;stroke:#ffffff" x1="25.252999999999986" y1="50.978999999999985" x2="0.31100000000000705" y2="50.978999999999985"/>
        <line id="indepdline2" style="stroke-linecap:round;fill:none;stroke:#ffffff" x1="25.25200000000001" y1="25.498999999999967" x2="0.2680000000000007" y2="25.498999999999967"/>
        <path id="indepd_path" class="bg" style="stroke-width:5;stroke-linecap:round;fill:none;stroke:#e6f2ff" d="M0.35200000000000387 0.020999999999958163 l25.024 0 l0 76.299 l-25.024 0 z"/>
      </g>
    </g>
    <g transform="matrix(1,0,0,1,155.4,266.3)">
      <g id="kefed_parameterspec" class="basic" style="spriteid:Parameter Specification;groupid:Basic">
        <path id="indepdrect1" style="stroke-width:3;stroke-linecap:round;fill:#6a99ce;stroke:#6996cf" d="M0.35200000000000387 0.020999999999958163 l25.024 0 l0 76.299 l-25.024 0 z"/>
        <line id="indepdline1" style="stroke-linecap:round;fill:none;stroke:#ffffff" x1="25.252999999999986" y1="50.978999999999985" x2="0.31100000000000705" y2="50.978999999999985"/>
        <line id="indepdline2" style="stroke-linecap:round;fill:none;stroke:#ffffff" x1="25.25200000000001" y1="25.498999999999967" x2="0.2680000000000007" y2="25.498999999999967"/>
        <path id="indepd_path" class="bg" style="stroke-width:5;stroke-linecap:round;fill:none;stroke:#e6f2ff" d="M0.35200000000000387 0.020999999999958163 l25.024 0 l0 76.299 l-25.024 0 z"/>
      </g>
    </g>
    <g transform="matrix(1,0,0,1,245.25,272.6)">
      <g id="kefed_activity" class="basic" style="spriteid:Activity;groupid:Basic">
        <path id="activity_ellipse" style="stroke-width:3;fill:#ffffff;stroke:#6996cf" d="M60.06699999999999 3.718999999999994 c15.281 0 55.975 5.846 55.975 27.581 c0 18.437 -32.58 27.581 -55.975 27.581 c-49.842 0 -55.975 -23.397 -55.975 -27.581 C4.091999999999999 10.998999999999995 44.17400000000001 3.718999999999994 60.06699999999999 3.718999999999994 z"/>
        <path id="activity_path" class="bg" style="stroke-width:5;fill:none;stroke:#e6f2ff" d="M59.75 0.014000000000010004 c16.312 0 59.75 6.649 59.75 31.368 c0 20.969 -34.777 31.368 -59.75 31.368 C6.546999999999997 62.75 0 36.14099999999999 0 31.382000000000005 C0 8.293000000000006 42.785 0.014000000000010004 59.75 0.014000000000010004 z"/>
      </g>
    </g>
    <g transform="matrix(1,0,0,1,191.4,389)">
      <g id="kefed_constantspec" class="basic" style="spriteid:Constant Specification;groupid:Basic">
        <path id="cntrldrect1_1_" style="stroke-width:3;stroke-linecap:round;fill:#6a99ce;stroke:#6996cf" d="M0.0020000000000095497 0.020999999999958163 l25.024 0 l0 25.299 l-25.024 0 z"/>
        <path id="cntrld_path_1_" class="bg" style="stroke-width:5;stroke-linecap:round;fill:none;stroke:#e6f2ff" d="M0.0020000000000095497 0.020999999999958163 l25.024 0 l0 28.299 l-25.024 0 z"/>
      </g>
    </g>
    <g transform="matrix(1,0,0,1,250.25,366.6)">
      <g id="kefed_activity" class="basic" style="spriteid:Activity;groupid:Basic">
        <path id="activity_ellipse" style="stroke-width:3;fill:#ffffff;stroke:#6996cf" d="M60.06699999999999 3.718999999999994 c15.281 0 55.975 5.846 55.975 27.581 c0 18.437 -32.58 27.581 -55.975 27.581 c-49.842 0 -55.975 -23.397 -55.975 -27.581 C4.091999999999999 10.998999999999995 44.17400000000001 3.718999999999994 60.06699999999999 3.718999999999994 z"/>
        <path id="activity_path" class="bg" style="stroke-width:5;fill:none;stroke:#e6f2ff" d="M59.75 0.014000000000010004 c16.312 0 59.75 6.649 59.75 31.368 c0 20.969 -34.777 31.368 -59.75 31.368 C6.546999999999997 62.75 0 36.14099999999999 0 31.382000000000005 C0 8.293000000000006 42.785 0.014000000000010004 59.75 0.014000000000010004 z"/>
      </g>
    </g>
    <g transform="matrix(1,0,0,1,277,472.45)">
      <g id="kefed_measurementspec" class="basic" style="spriteid:Measurement Specification;groupid:Basic">
        <path style="stroke-width:3;stroke-linecap:round;fill:#ffffff;stroke:#6996cf" d="M4.063000000000002 4.24199999999999 l55.866 0 l0 55 l-55.866 0 z"/>
        <path style="stroke-linecap:round;fill:#6a99ce;stroke:#6996cf" d="M4.0319999999999965 4.332999999999998 l55.897 0 l0 18.333 l-55.897 0 z"/>
        <line style="stroke-linecap:round;fill:none;stroke:#6996cf" x1="41.263000000000005" y1="4.24199999999999" x2="41.263000000000005" y2="59.24199999999999"/>
        <line style="stroke-linecap:round;fill:none;stroke:#6996cf" x1="22.596000000000004" y1="4.24199999999999" x2="22.596000000000004" y2="59.24199999999999"/>
        <line style="stroke-linecap:round;fill:none;stroke:#6996cf" x1="4.063000000000002" y1="22.57499999999999" x2="59.929" y2="22.57499999999999"/>
        <line style="stroke-linecap:round;fill:none;stroke:#6996cf" x1="4.063000000000002" y1="40.90899999999999" x2="59.929" y2="40.90899999999999"/>
        <path style="stroke-linecap:round;fill:#6a99ce;stroke:#6996cf" d="M4.049000000000007 22.57499999999999 l18.547 0 l0 36.667 l-18.547 0 z"/>
        <line style="stroke-linecap:round;fill:none;stroke:#ffffff" x1="4.049000000000007" y1="40.90899999999999" x2="22.596000000000004" y2="40.90899999999999"/>
        <line style="stroke-linecap:round;fill:none;stroke:#ffffff" x1="4.0319999999999965" y1="22.57499999999999" x2="22.596000000000004" y2="22.57499999999999"/>
        <line style="stroke-linecap:round;fill:none;stroke:#ffffff" x1="22.596000000000004" y1="22.575999999999993" x2="22.596000000000004" y2="4.302999999999997"/>
        <line style="stroke-linecap:round;fill:none;stroke:#ffffff" x1="41.263000000000005" y1="22.57499999999999" x2="41.263000000000005" y2="4.271999999999991"/>
        <polygon id="depv_path" class="bg" style="stroke-width:5;fill:none;stroke:#e6f2ff" points="0,0.09899999999998954 64,-0.0040000000000048885 64,63.099999999999994 0.019000000000005457,63.099999999999994"/>
      </g>
    </g>
    <g transform="matrix(1,0,0,1,251.9,91.6)">
      <g style="spriteid:annotation;groupid:__sys__">
        <svg class="annotation" x="2" y="2" width="100" height="17" viewBox="0 0 100 17">
          <text style="shapeid:annotation" x="0" y="0">
            <tspan x="50" dx="2" dy="16"><![CDATA[Cell Line
]]></tspan>
            <k:textfield><![CDATA[Cell Line]]></k:textfield>
          </text>
        </svg>
      </g>
    </g>
    <g transform="matrix(1,0,0,1,110,113.3)">
      <g style="spriteid:annotation;groupid:__sys__">
        <svg class="annotation" x="2" y="2" width="100" height="16" viewBox="0 0 100 16">
          <text style="shapeid:annotation" x="0" y="0">
            <tspan x="50" dx="2" dy="16"><![CDATA[cell-type
]]></tspan>
            <k:textfield><![CDATA[cell-type]]></k:textfield>
          </text>
        </svg>
      </g>
    </g>
    <g transform="matrix(1,0,0,1,63.5,176.3)">
      <g style="spriteid:annotation;groupid:__sys__">
        <svg class="annotation" x="2" y="2" width="100" height="70.7" viewBox="0 0 100 70.7">
          <text style="shapeid:annotation" x="0" y="0">
            <tspan x="50" dx="2" dy="16"><![CDATA[double-]]></tspan>
            <tspan x="50" dx="2" dy="17"><![CDATA[promoter-]]></tspan>
            <tspan x="50" dx="2" dy="17"><![CDATA[construct
]]></tspan>
            <k:textfield><![CDATA[double-promoter-construct]]></k:textfield>
          </text>
        </svg>
      </g>
    </g>
    <g transform="matrix(1,0,0,1,250,181.35)">
      <g style="spriteid:annotation;groupid:__sys__">
        <svg class="annotation" x="2" y="2" width="100" height="58.650000000000006" viewBox="0 0 100 58.650000000000006">
          <text style="shapeid:annotation" x="0" y="0">
            <tspan x="50" dx="2" dy="16"><![CDATA[Double ]]></tspan>
            <tspan x="50" dx="2" dy="17"><![CDATA[Transfection
]]></tspan>
            <k:textfield><![CDATA[Double Transfection]]></k:textfield>
          </text>
        </svg>
      </g>
    </g>
    <g transform="matrix(1,0,0,1,66,276.6)">
      <g style="spriteid:annotation;groupid:__sys__">
        <svg class="annotation" x="2" y="2" width="78" height="45" viewBox="0 0 78 45">
          <text style="shapeid:annotation" x="0" y="0">
            <tspan x="39" dx="2" dy="16"><![CDATA[primary-]]></tspan>
            <tspan x="39" dx="2" dy="17"><![CDATA[antibody
]]></tspan>
            <k:textfield><![CDATA[primary-antibody]]></k:textfield>
          </text>
        </svg>
      </g>
    </g>
    <g transform="matrix(1,0,0,1,248,283.05)">
      <g style="spriteid:annotation;groupid:__sys__">
        <svg class="annotation" x="2" y="2" width="100" height="46" viewBox="0 0 100 46">
          <text style="shapeid:annotation" x="0" y="0">
            <tspan x="50" dx="2" dy="16"><![CDATA[Immunohistoc]]></tspan>
            <tspan x="50" dx="2" dy="17"><![CDATA[hemistry
]]></tspan>
            <k:textfield><![CDATA[Immunohistochemistry]]></k:textfield>
          </text>
        </svg>
      </g>
    </g>
    <g transform="matrix(1,0,0,1,153.9,417.3)">
      <g style="spriteid:annotation;groupid:__sys__">
        <svg class="annotation" x="2" y="2" width="100" height="16" viewBox="0 0 100 16">
          <text style="shapeid:annotation" x="0" y="0">
            <tspan x="50" dx="2" dy="16"><![CDATA[feature
]]></tspan>
            <k:textfield><![CDATA[feature]]></k:textfield>
          </text>
        </svg>
      </g>
    </g>
    <g transform="matrix(1,0,0,1,256,376.35)">
      <g style="spriteid:annotation;groupid:__sys__">
        <svg class="annotation" x="2" y="2" width="100" height="52.650000000000006" viewBox="0 0 100 52.650000000000006">
          <text style="shapeid:annotation" x="0" y="0">
            <tspan x="50" dx="2" dy="16"><![CDATA[Scoring for ]]></tspan>
            <tspan x="50" dx="2" dy="17"><![CDATA[feature
]]></tspan>
            <k:textfield><![CDATA[Scoring for feature]]></k:textfield>
          </text>
        </svg>
      </g>
    </g>
    <g transform="matrix(1,0,0,1,259,535.55)">
      <g style="spriteid:annotation;groupid:__sys__">
        <svg class="annotation" x="2" y="2" width="100" height="16" viewBox="0 0 100 16">
          <text style="shapeid:annotation" x="0" y="0">
            <tspan x="50" dx="2" dy="16"><![CDATA[presence
]]></tspan>
            <k:textfield><![CDATA[presence]]></k:textfield>
          </text>
        </svg>
      </g>
    </g>
    <rect style="stroke-opacity:1;stroke-width:1;fill-opacity:1;fill:#eeeeee;stroke:#838ea8" x="0" y="0" rx="0" ry="0" width="31" height="571.55"/>
    <text style="font-family:arial;fill:#4f5e66;font-size:10px" transform="matrix(6.123233995736766e-17,-1,1,6.123233995736766e-17,0,106.6)" x="0" y="0">
      <tspan x="0" dx="2" dy="11"><![CDATA[2Tfx-fix+stain_score
]]></tspan>
      <k:textfield><![CDATA[2Tfx-fix+stain_score]]></k:textfield>
    </text>
    <rect style="stroke-opacity:1;stroke-width:1;fill-opacity:0;fill:#000000;stroke:#838ea8" x="0" y="0" rx="0" ry="0" width="419.75" height="571.55"/>
  </svg>
  <rect style="stroke-opacity:1;stroke-width:1;fill-opacity:1;fill:#cccccc;stroke:#838ea8" x="-31" y="0" rx="0" ry="0" width="31" height="571.55"/>
  <text style="font-family:arial;fill:#4f5e66;font-size:10px" transform="matrix(6.123233995736766e-17,-1,1,6.123233995736766e-17,-31,75.05)" x="0" y="0">
    <tspan x="0" dx="2" dy="11"><![CDATA[Kefed Model
]]></tspan>
    <k:textfield><![CDATA[Kefed Model]]></k:textfield>
  </text>
</svg>